# xmcd
#
# Track frame offsets:
#	150
#	25208
#	45221
#	72263
#	97761
#	125442
#	158142
#	188405
#	215463
#	236643
#	256278
#	287636
#	310730
#
# Disc length: 4212 seconds
#
# Revision: 1
# Processed by: cddbd v1.5.2PL0 Copyright (c) Steve Scherf et al.
# Submitted via: audiograbber 1.83.01
#
DISCID=a310720d
DTITLE=Leonard Cohen - (1997) More Best Of Leonard Cohen
DYEAR=1997
DGENRE=
TTITLE0=Everybody Knows
TTITLE1=I'm Your Man
TTITLE2=Take This Waltz
TTITLE3=Tower Of Song
TTITLE4=Anthem
TTITLE5=Democracy
TTITLE6=The Future
TTITLE7=Closing Time
TTITLE8=Dance Me To The End Of Love
TTITLE9=Suzanne
TTITLE10=Hallelujah
TTITLE11=Never Any Good
TTITLE12=The Great Event
EXTD=
EXTT0=
EXTT1=
EXTT2=
EXTT3=
EXTT4=
EXTT5=
EXTT6=
EXTT7=
EXTT8=
EXTT9=
EXTT10=
EXTT11=
EXTT12=
PLAYORDER=
